<svg width="28" height="24" viewBox="0 0 28 24" fill="none" xmlns="http://www.w3.org/2000/svg">
<mask id="path-1-inside-1_92_6" fill="white">
<path d="M24 12C24 9.13326 22.9737 6.36123 21.1069 4.18563C19.2401 2.01003 16.6561 0.57463 13.8226 0.139219C10.9891 -0.296192 8.09337 0.29716 5.65948 1.81188C3.22558 3.3266 1.41436 5.66261 0.553646 8.39709C-0.307073 11.1316 -0.160421 14.0838 0.96706 16.7196C2.09454 19.3553 4.12835 21.5003 6.70038 22.7663C9.2724 24.0324 12.2127 24.3358 14.9891 23.6218C17.7655 22.9077 20.1945 21.2233 21.8365 18.8734L20.9066 18.2236C19.4198 20.3513 17.2204 21.8765 14.7065 22.5231C12.1926 23.1696 9.53027 22.8949 7.2014 21.7485C4.87253 20.6021 3.03099 18.6599 2.0101 16.2734C0.989215 13.8868 0.856427 11.2137 1.63577 8.7377C2.41512 6.26174 4.05511 4.14658 6.2589 2.77506C8.4627 1.40354 11.0847 0.86628 13.6503 1.26053C16.2159 1.65477 18.5556 2.95448 20.2459 4.92439C21.9363 6.89431 22.8655 9.40428 22.8655 12H24Z"/>
</mask>
<path d="M24 12C24 9.13326 22.9737 6.36123 21.1069 4.18563C19.2401 2.01003 16.6561 0.57463 13.8226 0.139219C10.9891 -0.296192 8.09337 0.29716 5.65948 1.81188C3.22558 3.3266 1.41436 5.66261 0.553646 8.39709C-0.307073 11.1316 -0.160421 14.0838 0.96706 16.7196C2.09454 19.3553 4.12835 21.5003 6.70038 22.7663C9.2724 24.0324 12.2127 24.3358 14.9891 23.6218C17.7655 22.9077 20.1945 21.2233 21.8365 18.8734L20.9066 18.2236C19.4198 20.3513 17.2204 21.8765 14.7065 22.5231C12.1926 23.1696 9.53027 22.8949 7.2014 21.7485C4.87253 20.6021 3.03099 18.6599 2.0101 16.2734C0.989215 13.8868 0.856427 11.2137 1.63577 8.7377C2.41512 6.26174 4.05511 4.14658 6.2589 2.77506C8.4627 1.40354 11.0847 0.86628 13.6503 1.26053C16.2159 1.65477 18.5556 2.95448 20.2459 4.92439C21.9363 6.89431 22.8655 9.40428 22.8655 12H24Z" stroke="black" stroke-width="4" mask="url(#path-1-inside-1_92_6)"/>
<path d="M17.5 8.5L23.5 12.5L27.5 7.5" stroke="black"/>
</svg>
